<svg id="Capa_1" data-name="Capa 1" xmlns="http://www.w3.org/2000/svg" xmlns:xlink="http://www.w3.org/1999/xlink" viewBox="0 0 200 167"><defs><style>.cls-1{stroke:#232a50;stroke-width:3px;fill:url(#Degradado_sin_nombre_46);}.cls-1,.cls-2{stroke-miterlimit:10;}.cls-2{fill:#fff;stroke:#fff;stroke-width:2px;}</style><linearGradient id="Degradado_sin_nombre_46" x1="9" y1="83" x2="192" y2="83" gradientUnits="userSpaceOnUse"><stop offset="0" stop-color="#2186c7"/><stop offset="0.01" stop-color="#1f96d2"/><stop offset="0.01" stop-color="#1e9cd7"/><stop offset="0.53" stop-color="#1c98d3"/><stop offset="1" stop-color="#005b97"/></linearGradient></defs><title>1</title><path class="cls-1" d="M94.07,163.87c55.7,2.75,99.16-39.7,97.9-84.12S145.3,2,100.51,2C57.64,2,10.6,32.59,9,79.75,7.6,123.07,45.15,162.35,94.07,163.87Z"/><path class="cls-2" d="M101.89,90.15c16.45.87,29.28-12.55,28.91-26.6S117,39,103.79,39c-12.66,0-26.55,9.68-27,24.59A26.16,26.16,0,0,0,101.89,90.15Z"/><path class="cls-2" d="M83,90.14c-1.43.35-19.77,5.18-24.82,21.76a30.38,30.38,0,0,0-.59,14.79l.17-.11H145.4l.18.11a28.24,28.24,0,0,0,.59-15.46c-2.66-10.32-11.61-18.31-23-21.09a28.42,28.42,0,0,1-40.18,0Z"/></svg>