<svg width="21" height="21" viewBox="0 0 21 21" fill="none" xmlns="http://www.w3.org/2000/svg">
<path d="M9.34289 12.376C9.34289 11.9876 9.41456 11.6652 9.55791 11.409C9.70125 11.1446 9.90603 10.8595 10.1722 10.5537C10.3429 10.3553 10.4658 10.1942 10.5408 10.0702C10.6228 9.94623 10.6637 9.814 10.6637 9.67351C10.6637 9.49169 10.5989 9.35119 10.4692 9.25202C10.3395 9.14458 10.1757 9.09086 9.9777 9.09086C9.75927 9.09086 9.5545 9.16937 9.36337 9.3264C9.17224 9.47516 9.02207 9.67764 8.91286 9.93384L7.09033 8.83053C7.36337 8.20243 7.7661 7.71069 8.29852 7.35532C8.83777 6.99995 9.49989 6.82227 10.2849 6.82227C11.1176 6.82227 11.7934 7.02888 12.3122 7.4421C12.8309 7.85532 13.0903 8.43797 13.0903 9.19003C13.0903 9.53714 13.0391 9.84293 12.9367 10.1074C12.8412 10.3636 12.7251 10.5826 12.5886 10.7644C12.4521 10.938 12.278 11.1322 12.0664 11.3471C11.848 11.5785 11.691 11.7644 11.5955 11.9049C11.4999 12.0454 11.4521 12.2024 11.4521 12.376H9.34289ZM10.3975 15.8223C10.0016 15.8223 9.67736 15.6776 9.4248 15.3884C9.17224 15.0991 9.04596 14.7479 9.04596 14.3347C9.04596 13.9132 9.17224 13.5661 9.4248 13.2933C9.67736 13.0123 10.0016 12.8719 10.3975 12.8719C10.7934 12.8719 11.1176 13.0123 11.3702 13.2933C11.6228 13.5661 11.749 13.9132 11.749 14.3347C11.749 14.7479 11.6228 15.0991 11.3702 15.3884C11.1176 15.6776 10.7934 15.8223 10.3975 15.8223Z" fill="white"/>
<path fill-rule="evenodd" clip-rule="evenodd" d="M10.0903 3.04449C5.79478 3.04449 2.31255 6.52672 2.31255 10.8223C2.31255 15.1178 5.79478 18.6 10.0903 18.6C14.3859 18.6 17.8681 15.1178 17.8681 10.8223C17.8681 6.52672 14.3859 3.04449 10.0903 3.04449ZM0.090332 10.8223C0.090332 5.29942 4.56748 0.822266 10.0903 0.822266C15.6132 0.822266 20.0903 5.29942 20.0903 10.8223C20.0903 16.3451 15.6132 20.8223 10.0903 20.8223C4.56748 20.8223 0.090332 16.3451 0.090332 10.8223Z" fill="white"/>
</svg>
